<svg xmlns="http://www.w3.org/2000/svg" xmlns:xlink="http://www.w3.org/1999/xlink" width="1080" zoomAndPan="magnify" viewBox="0 0 810 809.999993" height="1080" preserveAspectRatio="xMidYMid meet" version="1.0"><defs><clipPath id="8e817310ba"><path d="M 156.289062 143.199219 L 652 143.199219 L 652 572 L 156.289062 572 Z M 156.289062 143.199219 " clip-rule="nonzero"/></clipPath><clipPath id="12ea85b5b3"><path d="M 332 595 L 404 595 L 404 666.699219 L 332 666.699219 Z M 332 595 " clip-rule="nonzero"/></clipPath><clipPath id="ae63d8bcc4"><path d="M 499 595 L 571 595 L 571 666.699219 L 499 666.699219 Z M 499 595 " clip-rule="nonzero"/></clipPath><clipPath id="61531e54dd"><path d="M 169.308594 109.484375 L 391.710938 109.484375 L 391.710938 259.300781 L 169.308594 259.300781 Z M 169.308594 109.484375 " clip-rule="nonzero"/></clipPath><clipPath id="b541374251"><path d="M 0.308594 0.484375 L 222.710938 0.484375 L 222.710938 150.300781 L 0.308594 150.300781 Z M 0.308594 0.484375 " clip-rule="nonzero"/></clipPath><clipPath id="5223b4a652"><rect x="0" width="223" y="0" height="151"/></clipPath><clipPath id="af3cb5638c"><path d="M 133.246094 78.867188 L 427.734375 78.867188 L 427.734375 289.976562 L 133.246094 289.976562 Z M 133.246094 78.867188 " clip-rule="nonzero"/></clipPath><clipPath id="d8f01faefb"><rect x="0" width="492" y="0" height="404"/></clipPath></defs><g clip-path="url(#8e817310ba)"><path fill="#ffffff" d="M 582.992188 523.992188 L 336.617188 523.992188 C 335.917969 524.015625 335.214844 524.003906 334.511719 523.957031 C 333.8125 523.914062 333.113281 523.832031 332.421875 523.714844 C 331.726562 523.597656 331.042969 523.445312 330.363281 523.261719 C 329.683594 523.074219 329.019531 522.855469 328.363281 522.601562 C 327.707031 522.351562 327.0625 522.066406 326.4375 521.75 C 325.808594 521.429688 325.199219 521.082031 324.605469 520.707031 C 324.015625 520.328125 323.441406 519.921875 322.890625 519.484375 C 322.339844 519.050781 321.808594 518.585938 321.304688 518.097656 C 320.796875 517.609375 320.320312 517.097656 319.863281 516.558594 C 319.410156 516.023438 318.984375 515.464844 318.585938 514.886719 C 318.1875 514.304688 317.820312 513.707031 317.484375 513.089844 C 317.144531 512.476562 316.839844 511.84375 316.566406 511.195312 C 316.289062 510.546875 316.050781 509.890625 315.839844 509.21875 C 315.632812 508.546875 315.457031 507.867188 315.316406 507.175781 C 315.179688 506.488281 315.074219 505.792969 315.003906 505.09375 C 314.933594 504.394531 314.898438 503.695312 314.898438 502.992188 C 314.898438 502.289062 314.933594 501.585938 315.003906 500.886719 C 315.074219 500.1875 315.179688 499.492188 315.316406 498.804688 C 315.457031 498.113281 315.632812 497.433594 315.839844 496.761719 C 316.050781 496.09375 316.289062 495.433594 316.566406 494.785156 C 316.839844 494.136719 317.144531 493.507812 317.484375 492.890625 C 317.820312 492.273438 318.1875 491.675781 318.585938 491.09375 C 318.984375 490.515625 319.410156 489.957031 319.863281 489.421875 C 320.320312 488.882812 320.796875 488.371094 321.304688 487.882812 C 321.808594 487.394531 322.339844 486.933594 322.890625 486.496094 C 323.441406 486.0625 324.015625 485.652344 324.605469 485.277344 C 325.199219 484.898438 325.808594 484.550781 326.4375 484.234375 C 327.0625 483.914062 327.707031 483.632812 328.363281 483.378906 C 329.019531 483.125 329.683594 482.90625 330.363281 482.722656 C 331.042969 482.535156 331.726562 482.382812 332.421875 482.265625 C 333.113281 482.152344 333.8125 482.070312 334.511719 482.023438 C 335.214844 481.976562 335.917969 481.964844 336.617188 481.988281 L 582.992188 481.988281 C 584.339844 481.988281 585.671875 481.875 587 481.652344 C 588.324219 481.425781 589.621094 481.089844 590.890625 480.644531 C 592.160156 480.199219 593.382812 479.652344 594.558594 479 C 595.734375 478.347656 596.847656 477.601562 597.898438 476.757812 C 598.945312 475.917969 599.917969 474.996094 600.808594 473.988281 C 601.703125 472.984375 602.503906 471.910156 603.214844 470.769531 C 603.925781 469.625 604.535156 468.433594 605.046875 467.1875 C 605.554688 465.945312 605.953125 464.664062 606.246094 463.351562 L 651.0625 261.746094 C 651.253906 260.878906 651.394531 260.003906 651.488281 259.121094 C 651.582031 258.238281 651.628906 257.351562 651.621094 256.464844 C 651.617188 255.574219 651.5625 254.691406 651.457031 253.808594 C 651.351562 252.925781 651.199219 252.054688 650.996094 251.1875 C 650.796875 250.324219 650.546875 249.472656 650.25 248.636719 C 649.953125 247.800781 649.609375 246.980469 649.21875 246.183594 C 648.832031 245.386719 648.398438 244.609375 647.921875 243.859375 C 647.449219 243.109375 646.933594 242.390625 646.375 241.699219 C 645.820312 241.003906 645.226562 240.347656 644.597656 239.71875 C 643.964844 239.09375 643.304688 238.503906 642.609375 237.953125 C 641.910156 237.402344 641.1875 236.890625 640.433594 236.421875 C 639.679688 235.949219 638.902344 235.523438 638.101562 235.140625 C 637.300781 234.753906 636.484375 234.417969 635.644531 234.125 C 634.804688 233.835938 633.953125 233.589844 633.085938 233.394531 C 632.222656 233.195312 631.347656 233.050781 630.464844 232.953125 C 629.582031 232.851562 628.695312 232.804688 627.808594 232.804688 L 291.804688 232.804688 C 290.09375 232.796875 288.40625 232.972656 286.734375 233.328125 L 270.21875 161.644531 C 269.917969 160.339844 269.507812 159.074219 268.996094 157.839844 C 268.480469 156.605469 267.867188 155.425781 267.152344 154.292969 C 266.441406 153.164062 265.636719 152.101562 264.746094 151.105469 C 263.851562 150.113281 262.882812 149.199219 261.835938 148.367188 C 260.792969 147.535156 259.683594 146.796875 258.511719 146.152344 C 257.339844 145.507812 256.125 144.964844 254.863281 144.523438 C 253.601562 144.085938 252.3125 143.753906 250.992188 143.53125 C 249.675781 143.308594 248.347656 143.199219 247.011719 143.199219 L 179.800781 143.199219 C 179.023438 143.199219 178.246094 143.238281 177.46875 143.3125 C 176.695312 143.390625 175.925781 143.503906 175.160156 143.65625 C 174.394531 143.808594 173.640625 143.996094 172.894531 144.222656 C 172.148438 144.449219 171.414062 144.710938 170.695312 145.011719 C 169.972656 145.308594 169.269531 145.640625 168.582031 146.007812 C 167.894531 146.375 167.226562 146.777344 166.578125 147.210938 C 165.933594 147.640625 165.304688 148.105469 164.703125 148.601562 C 164.101562 149.09375 163.523438 149.617188 162.972656 150.167969 C 162.421875 150.71875 161.898438 151.296875 161.40625 151.898438 C 160.910156 152.503906 160.445312 153.128906 160.015625 153.777344 C 159.582031 154.421875 159.179688 155.089844 158.8125 155.777344 C 158.445312 156.464844 158.113281 157.171875 157.8125 157.890625 C 157.515625 158.609375 157.253906 159.34375 157.027344 160.089844 C 156.800781 160.835938 156.613281 161.589844 156.460938 162.355469 C 156.308594 163.121094 156.195312 163.890625 156.117188 164.664062 C 156.039062 165.441406 156.003906 166.21875 156.003906 166.996094 C 156.003906 167.777344 156.039062 168.554688 156.117188 169.332031 C 156.195312 170.105469 156.308594 170.875 156.460938 171.640625 C 156.613281 172.40625 156.800781 173.160156 157.027344 173.90625 C 157.253906 174.652344 157.515625 175.386719 157.8125 176.105469 C 158.113281 176.824219 158.445312 177.53125 158.8125 178.21875 C 159.179688 178.90625 159.582031 179.574219 160.015625 180.21875 C 160.445312 180.867188 160.910156 181.492188 161.40625 182.097656 C 161.898438 182.699219 162.421875 183.277344 162.972656 183.828125 C 163.523438 184.378906 164.101562 184.902344 164.703125 185.394531 C 165.304688 185.890625 165.933594 186.355469 166.578125 186.785156 C 167.226562 187.21875 167.894531 187.621094 168.582031 187.988281 C 169.269531 188.355469 169.972656 188.6875 170.695312 188.984375 C 171.414062 189.285156 172.148438 189.546875 172.894531 189.773438 C 173.640625 190 174.394531 190.1875 175.160156 190.339844 C 175.925781 190.492188 176.695312 190.605469 177.46875 190.683594 C 178.246094 190.757812 179.023438 190.796875 179.800781 190.796875 L 228.066406 190.796875 L 288.804688 453.949219 C 287.589844 455.128906 286.421875 456.355469 285.296875 457.621094 C 284.171875 458.886719 283.09375 460.191406 282.066406 461.539062 C 281.039062 462.886719 280.0625 464.269531 279.140625 465.6875 C 278.214844 467.105469 277.34375 468.554688 276.527344 470.039062 C 275.707031 471.523438 274.945312 473.035156 274.242188 474.574219 C 273.535156 476.113281 272.890625 477.675781 272.300781 479.265625 C 271.710938 480.851562 271.179688 482.460938 270.710938 484.085938 C 270.242188 485.714844 269.832031 487.355469 269.484375 489.015625 C 269.136719 490.671875 268.847656 492.339844 268.625 494.019531 C 268.398438 495.695312 268.238281 497.382812 268.136719 499.070312 C 268.039062 500.761719 268 502.453125 268.027344 504.148438 C 268.054688 505.839844 268.140625 507.53125 268.292969 509.21875 C 268.445312 510.90625 268.660156 512.582031 268.933594 514.253906 C 269.210938 515.925781 269.546875 517.582031 269.945312 519.230469 C 270.34375 520.875 270.804688 522.503906 271.324219 524.117188 C 271.84375 525.726562 272.421875 527.320312 273.0625 528.886719 C 273.699219 530.457031 274.394531 532 275.144531 533.515625 C 275.898438 535.035156 276.703125 536.523438 277.566406 537.980469 C 278.429688 539.4375 279.34375 540.859375 280.3125 542.25 C 281.28125 543.640625 282.300781 544.992188 283.367188 546.304688 C 284.4375 547.621094 285.550781 548.894531 286.714844 550.125 C 287.875 551.355469 289.082031 552.542969 290.335938 553.683594 C 291.585938 554.824219 292.875 555.917969 294.207031 556.964844 C 295.539062 558.011719 296.910156 559.007812 298.316406 559.953125 C 299.71875 560.894531 301.160156 561.789062 302.632812 562.625 C 304.101562 563.460938 305.605469 564.246094 307.132812 564.972656 C 308.664062 565.699219 310.21875 566.367188 311.796875 566.976562 C 313.378906 567.589844 314.976562 568.140625 316.597656 568.632812 C 318.21875 569.125 319.855469 569.558594 321.507812 569.929688 C 323.160156 570.300781 324.824219 570.609375 326.5 570.855469 C 328.171875 571.105469 329.855469 571.289062 331.542969 571.414062 C 333.234375 571.535156 334.925781 571.597656 336.617188 571.59375 L 582.992188 571.59375 C 583.773438 571.59375 584.550781 571.554688 585.328125 571.476562 C 586.101562 571.402344 586.871094 571.289062 587.636719 571.136719 C 588.402344 570.984375 589.15625 570.792969 589.902344 570.566406 C 590.648438 570.34375 591.382812 570.078125 592.101562 569.78125 C 592.820312 569.484375 593.523438 569.148438 594.210938 568.78125 C 594.898438 568.414062 595.566406 568.015625 596.214844 567.582031 C 596.863281 567.148438 597.488281 566.683594 598.09375 566.191406 C 598.695312 565.695312 599.269531 565.171875 599.824219 564.621094 C 600.375 564.070312 600.894531 563.496094 601.390625 562.890625 C 601.886719 562.289062 602.347656 561.664062 602.78125 561.015625 C 603.214844 560.367188 603.617188 559.699219 603.984375 559.011719 C 604.351562 558.324219 604.683594 557.621094 604.980469 556.902344 C 605.28125 556.179688 605.542969 555.449219 605.769531 554.703125 C 605.996094 553.957031 606.183594 553.199219 606.335938 552.4375 C 606.488281 551.671875 606.601562 550.902344 606.679688 550.125 C 606.753906 549.351562 606.792969 548.574219 606.792969 547.792969 C 606.792969 547.015625 606.753906 546.238281 606.679688 545.460938 C 606.601562 544.683594 606.488281 543.914062 606.335938 543.148438 C 606.183594 542.386719 605.996094 541.628906 605.769531 540.882812 C 605.542969 540.140625 605.28125 539.40625 604.980469 538.6875 C 604.683594 537.964844 604.351562 537.261719 603.984375 536.574219 C 603.617188 535.886719 603.214844 535.21875 602.78125 534.570312 C 602.347656 533.921875 601.886719 533.296875 601.390625 532.695312 C 600.894531 532.09375 600.375 531.515625 599.824219 530.964844 C 599.269531 530.414062 598.695312 529.890625 598.09375 529.394531 C 597.488281 528.902344 596.863281 528.4375 596.214844 528.003906 C 595.566406 527.570312 594.898438 527.171875 594.210938 526.804688 C 593.523438 526.4375 592.820312 526.105469 592.101562 525.804688 C 591.382812 525.507812 590.648438 525.246094 589.902344 525.019531 C 589.15625 524.792969 588.402344 524.601562 587.636719 524.449219 C 586.871094 524.300781 586.101562 524.183594 585.328125 524.109375 C 584.550781 524.03125 583.773438 523.992188 582.992188 523.992188 Z M 582.992188 523.992188 " fill-opacity="1" fill-rule="nonzero"/></g><g clip-path="url(#12ea85b5b3)"><path fill="#ffffff" d="M 403.804688 631.09375 C 403.804688 632.261719 403.75 633.429688 403.632812 634.589844 C 403.519531 635.753906 403.347656 636.910156 403.121094 638.058594 C 402.890625 639.203125 402.609375 640.335938 402.269531 641.457031 C 401.929688 642.574219 401.535156 643.675781 401.085938 644.753906 C 400.640625 645.835938 400.140625 646.890625 399.589844 647.921875 C 399.039062 648.953125 398.4375 649.953125 397.789062 650.925781 C 397.140625 651.898438 396.445312 652.835938 395.703125 653.738281 C 394.960938 654.644531 394.175781 655.507812 393.347656 656.335938 C 392.523438 657.164062 391.65625 657.945312 390.753906 658.6875 C 389.847656 659.429688 388.910156 660.125 387.9375 660.777344 C 386.96875 661.425781 385.964844 662.027344 384.933594 662.578125 C 383.902344 663.128906 382.847656 663.628906 381.765625 664.074219 C 380.6875 664.523438 379.585938 664.914062 378.46875 665.253906 C 377.351562 665.59375 376.21875 665.878906 375.070312 666.105469 C 373.921875 666.335938 372.769531 666.503906 371.605469 666.621094 C 370.441406 666.734375 369.273438 666.792969 368.105469 666.792969 C 366.9375 666.792969 365.769531 666.734375 364.605469 666.621094 C 363.441406 666.503906 362.289062 666.335938 361.140625 666.105469 C 359.996094 665.878906 358.863281 665.59375 357.742188 665.253906 C 356.625 664.914062 355.523438 664.523438 354.445312 664.074219 C 353.363281 663.628906 352.308594 663.128906 351.277344 662.578125 C 350.246094 662.027344 349.246094 661.425781 348.273438 660.777344 C 347.300781 660.125 346.363281 659.429688 345.457031 658.6875 C 344.554688 657.945312 343.6875 657.164062 342.863281 656.335938 C 342.035156 655.507812 341.25 654.644531 340.507812 653.738281 C 339.769531 652.835938 339.070312 651.898438 338.421875 650.925781 C 337.773438 649.953125 337.171875 648.953125 336.621094 647.921875 C 336.070312 646.890625 335.570312 645.835938 335.125 644.753906 C 334.675781 643.675781 334.28125 642.574219 333.945312 641.457031 C 333.605469 640.335938 333.320312 639.203125 333.09375 638.058594 C 332.863281 636.910156 332.691406 635.753906 332.578125 634.589844 C 332.464844 633.429688 332.40625 632.261719 332.40625 631.09375 C 332.40625 629.921875 332.464844 628.757812 332.578125 627.59375 C 332.691406 626.429688 332.863281 625.273438 333.09375 624.128906 C 333.320312 622.980469 333.605469 621.847656 333.945312 620.730469 C 334.28125 619.609375 334.675781 618.511719 335.125 617.429688 C 335.570312 616.351562 336.070312 615.292969 336.621094 614.265625 C 337.171875 613.234375 337.773438 612.230469 338.421875 611.257812 C 339.070312 610.285156 339.769531 609.347656 340.507812 608.445312 C 341.25 607.539062 342.035156 606.675781 342.863281 605.847656 C 343.6875 605.023438 344.554688 604.238281 345.457031 603.496094 C 346.363281 602.753906 347.300781 602.058594 348.273438 601.410156 C 349.246094 600.757812 350.246094 600.160156 351.277344 599.609375 C 352.308594 599.058594 353.363281 598.558594 354.445312 598.109375 C 355.523438 597.664062 356.625 597.269531 357.742188 596.929688 C 358.863281 596.589844 359.996094 596.308594 361.140625 596.078125 C 362.289062 595.851562 363.441406 595.679688 364.605469 595.566406 C 365.769531 595.449219 366.9375 595.394531 368.105469 595.394531 C 369.273438 595.394531 370.441406 595.449219 371.605469 595.566406 C 372.769531 595.679688 373.921875 595.851562 375.070312 596.078125 C 376.21875 596.308594 377.351562 596.589844 378.46875 596.929688 C 379.585938 597.269531 380.6875 597.664062 381.765625 598.109375 C 382.847656 598.558594 383.902344 599.058594 384.933594 599.609375 C 385.964844 600.160156 386.96875 600.757812 387.9375 601.410156 C 388.910156 602.058594 389.847656 602.753906 390.753906 603.496094 C 391.65625 604.238281 392.523438 605.023438 393.347656 605.847656 C 394.175781 606.675781 394.960938 607.539062 395.703125 608.445312 C 396.445312 609.347656 397.140625 610.285156 397.789062 611.257812 C 398.4375 612.230469 399.039062 613.234375 399.589844 614.265625 C 400.140625 615.292969 400.640625 616.351562 401.085938 617.429688 C 401.535156 618.511719 401.929688 619.609375 402.269531 620.730469 C 402.609375 621.847656 402.890625 622.980469 403.121094 624.128906 C 403.347656 625.273438 403.519531 626.429688 403.632812 627.59375 C 403.75 628.757812 403.804688 629.921875 403.804688 631.09375 Z M 403.804688 631.09375 " fill-opacity="1" fill-rule="nonzero"/></g><g clip-path="url(#ae63d8bcc4)"><path fill="#ffffff" d="M 570.402344 631.09375 C 570.402344 632.261719 570.347656 633.429688 570.230469 634.589844 C 570.117188 635.753906 569.945312 636.910156 569.71875 638.058594 C 569.488281 639.203125 569.207031 640.335938 568.867188 641.457031 C 568.527344 642.574219 568.132812 643.675781 567.6875 644.753906 C 567.238281 645.835938 566.738281 646.890625 566.1875 647.921875 C 565.636719 648.953125 565.035156 649.953125 564.386719 650.925781 C 563.738281 651.898438 563.042969 652.835938 562.300781 653.738281 C 561.558594 654.644531 560.773438 655.507812 559.945312 656.335938 C 559.121094 657.164062 558.253906 657.945312 557.351562 658.6875 C 556.449219 659.429688 555.507812 660.125 554.539062 660.777344 C 553.566406 661.425781 552.5625 662.027344 551.53125 662.578125 C 550.5 663.128906 549.445312 663.628906 548.367188 664.074219 C 547.285156 664.523438 546.1875 664.914062 545.066406 665.253906 C 543.949219 665.59375 542.816406 665.878906 541.667969 666.105469 C 540.523438 666.335938 539.367188 666.503906 538.203125 666.621094 C 537.039062 666.734375 535.871094 666.792969 534.703125 666.792969 C 533.535156 666.792969 532.367188 666.734375 531.203125 666.621094 C 530.042969 666.503906 528.886719 666.335938 527.738281 666.105469 C 526.59375 665.878906 525.460938 665.59375 524.339844 665.253906 C 523.222656 664.914062 522.121094 664.523438 521.042969 664.074219 C 519.960938 663.628906 518.90625 663.128906 517.875 662.578125 C 516.84375 662.027344 515.84375 661.425781 514.871094 660.777344 C 513.898438 660.125 512.960938 659.429688 512.054688 658.6875 C 511.152344 657.945312 510.289062 657.164062 509.460938 656.335938 C 508.632812 655.507812 507.847656 654.644531 507.109375 653.738281 C 506.367188 652.835938 505.671875 651.898438 505.019531 650.925781 C 504.371094 649.953125 503.769531 648.953125 503.21875 647.921875 C 502.667969 646.890625 502.167969 645.835938 501.722656 644.753906 C 501.273438 643.675781 500.878906 642.574219 500.542969 641.457031 C 500.203125 640.335938 499.917969 639.203125 499.691406 638.058594 C 499.460938 636.910156 499.289062 635.753906 499.175781 634.589844 C 499.0625 633.429688 499.003906 632.261719 499.003906 631.09375 C 499.003906 629.921875 499.0625 628.757812 499.175781 627.59375 C 499.289062 626.429688 499.460938 625.273438 499.691406 624.128906 C 499.917969 622.980469 500.203125 621.847656 500.542969 620.730469 C 500.882812 619.609375 501.273438 618.511719 501.722656 617.429688 C 502.167969 616.351562 502.667969 615.292969 503.21875 614.265625 C 503.769531 613.234375 504.371094 612.230469 505.019531 611.257812 C 505.671875 610.285156 506.367188 609.347656 507.109375 608.445312 C 507.847656 607.539062 508.632812 606.675781 509.460938 605.847656 C 510.289062 605.023438 511.152344 604.238281 512.054688 603.496094 C 512.960938 602.753906 513.898438 602.058594 514.871094 601.410156 C 515.84375 600.757812 516.84375 600.160156 517.875 599.609375 C 518.90625 599.058594 519.960938 598.558594 521.042969 598.109375 C 522.121094 597.664062 523.222656 597.269531 524.339844 596.929688 C 525.460938 596.589844 526.59375 596.308594 527.738281 596.078125 C 528.886719 595.851562 530.042969 595.679688 531.203125 595.566406 C 532.367188 595.449219 533.535156 595.394531 534.703125 595.394531 C 535.871094 595.394531 537.039062 595.449219 538.203125 595.566406 C 539.367188 595.679688 540.523438 595.851562 541.667969 596.078125 C 542.816406 596.308594 543.949219 596.589844 545.066406 596.929688 C 546.1875 597.269531 547.285156 597.664062 548.367188 598.109375 C 549.445312 598.558594 550.5 599.058594 551.53125 599.609375 C 552.5625 600.160156 553.566406 600.757812 554.539062 601.410156 C 555.507812 602.058594 556.449219 602.753906 557.351562 603.496094 C 558.253906 604.238281 559.121094 605.023438 559.945312 605.847656 C 560.773438 606.675781 561.558594 607.539062 562.300781 608.445312 C 563.042969 609.347656 563.738281 610.285156 564.386719 611.257812 C 565.035156 612.230469 565.636719 613.234375 566.1875 614.265625 C 566.738281 615.292969 567.238281 616.351562 567.6875 617.429688 C 568.132812 618.511719 568.527344 619.609375 568.867188 620.730469 C 569.207031 621.847656 569.488281 622.980469 569.71875 624.128906 C 569.945312 625.273438 570.117188 626.429688 570.230469 627.59375 C 570.347656 628.757812 570.402344 629.921875 570.402344 631.09375 Z M 570.402344 631.09375 " fill-opacity="1" fill-rule="nonzero"/></g><g transform="matrix(1, 0, 0, 1, 176, 173)"><g clip-path="url(#d8f01faefb)"><g clip-path="url(#61531e54dd)"><g transform="matrix(1, 0, 0, 1, 169, 109)"><g clip-path="url(#5223b4a652)"><g clip-path="url(#b541374251)"><path fill="#000000" d="M 0.308594 0.484375 L 222.691406 0.484375 L 222.691406 150.300781 L 0.308594 150.300781 Z M 0.308594 0.484375 " fill-opacity="1" fill-rule="nonzero"/></g></g></g></g><g clip-path="url(#af3cb5638c)"><path fill="#ffffff" d="M 278.03125 193.910156 C 305.621094 193.910156 332.789062 205.949219 355.996094 228.128906 C 362.117188 233.484375 362.546875 242.902344 356.941406 248.769531 C 351.300781 254.667969 341.894531 254.667969 336.296875 248.800781 C 317.355469 230.660156 297.460938 222.445312 278.03125 222.445312 C 258.625 222.445312 238.765625 230.652344 219.828125 248.800781 C 217.09375 251.484375 213.363281 252.964844 209.527344 252.863281 C 196.746094 252.535156 190.78125 236.851562 200.164062 228.121094 C 223.332031 205.949219 250.46875 193.910156 278.03125 193.910156 Z M 337.480469 137.601562 C 348.886719 137.601562 358.160156 146.894531 358.160156 158.308594 C 358.160156 169.730469 348.878906 178.980469 337.480469 178.980469 C 326.078125 178.980469 316.832031 169.730469 316.832031 158.308594 C 316.828125 146.890625 326.070312 137.601562 337.480469 137.601562 Z M 218.648438 137.601562 C 230.058594 137.601562 239.292969 146.894531 239.292969 158.308594 C 239.292969 169.730469 230.050781 178.980469 218.648438 178.980469 C 207.210938 178.980469 197.96875 169.730469 197.96875 158.308594 C 197.96875 146.890625 207.210938 137.601562 218.648438 137.601562 Z M 27.421875 2.25 C -0.402344 3.035156 -4.824219 45.007812 22.113281 52.324219 L 57.234375 64.726562 L 98.5625 280.203125 C 103.515625 305.988281 111.699219 329.328125 123.140625 349.40625 C 139.953125 378.972656 169.15625 400.792969 205.171875 400.792969 L 384.035156 400.792969 C 416.320312 401.378906 416.320312 349.726562 384.035156 350.324219 L 205.179688 350.324219 C 179.714844 347.078125 169.15625 334.246094 159.816406 315.441406 L 395.914062 315.441406 C 417.566406 315.441406 429.660156 296.210938 435.007812 273.96875 L 486.648438 98.289062 C 489.40625 69.40625 474.101562 63.707031 447.324219 63.707031 L 108.144531 63.964844 L 99.027344 36.101562 C 96.566406 27.808594 90.273438 21.402344 82.386719 19.175781 Z M 27.421875 2.25 " fill-opacity="1" fill-rule="nonzero"/></g></g></g></svg>